<svg xmlns="http://www.w3.org/2000/svg" width="20" height="20" viewBox="0 0 20 20">
  <g id="Instagram" transform="translate(0)">
    <path id="XMLID_142_" d="M146.175,206.547a5.1,5.1,0,0,0-2.921-2.921,7.3,7.3,0,0,0-2.427-.464c-1.066-.046-1.406-.062-4.127-.062s-3.06.008-4.127.062a7.254,7.254,0,0,0-2.427.464,5.1,5.1,0,0,0-2.921,2.921,7.3,7.3,0,0,0-.464,2.427c-.046,1.066-.062,1.406-.062,4.127s.008,3.06.062,4.127a7.255,7.255,0,0,0,.464,2.426,5.1,5.1,0,0,0,2.921,2.921,7.3,7.3,0,0,0,2.427.464c1.066.046,1.406.062,4.127.062s3.06-.008,4.127-.062a7.255,7.255,0,0,0,2.427-.464,5.1,5.1,0,0,0,2.921-2.921,7.3,7.3,0,0,0,.464-2.426c.046-1.066.062-1.407.062-4.127s-.008-3.06-.062-4.127A7.256,7.256,0,0,0,146.175,206.547Zm-1.337,10.595A5.467,5.467,0,0,1,144.49,219a3.1,3.1,0,0,1-.75,1.151,3.131,3.131,0,0,1-1.151.75,5.514,5.514,0,0,1-1.855.348c-1.059.046-1.368.062-4.042.062s-2.991-.008-4.042-.062a5.468,5.468,0,0,1-1.855-.348,3.1,3.1,0,0,1-1.151-.75,3.131,3.131,0,0,1-.75-1.151,5.511,5.511,0,0,1-.348-1.855c-.046-1.059-.062-1.376-.062-4.042s.008-2.991.062-4.042a5.465,5.465,0,0,1,.348-1.855,3.1,3.1,0,0,1,.75-1.151,3.131,3.131,0,0,1,1.151-.75,5.512,5.512,0,0,1,1.855-.348c1.059-.046,1.376-.062,4.042-.062s2.991.008,4.042.062a5.466,5.466,0,0,1,1.855.348,3.1,3.1,0,0,1,1.151.75,3.131,3.131,0,0,1,.75,1.151,5.512,5.512,0,0,1,.348,1.855c.046,1.059.062,1.376.062,4.042S144.884,216.09,144.838,217.142Z" transform="translate(-126.7 -203.1)"/>
    <path id="XMLID_145_" d="M194.345,266a4.845,4.845,0,1,0,4.845,4.845A4.847,4.847,0,0,0,194.345,266Zm0,7.992a3.147,3.147,0,1,1,3.147-3.147A3.148,3.148,0,0,1,194.345,273.992Z" transform="translate(-184.353 -260.845)"/>
    <ellipse id="XMLID_143_" cx="1.27" cy="1.27" rx="1.27" ry="1.27" transform="translate(14.018 3.434)"/>
  </g>
</svg>
