<svg xmlns="http://www.w3.org/2000/svg" width="256" height="83" viewBox="0 0 256 83">
  <g id="location" transform="translate(-84 -6428)">
    <text id="DieSachbearbeiter_Choriner_Straße_49_10435_Berlin" data-name="DieSachbearbeiter
Choriner Straße 49 10435 Berlin" transform="translate(121 6428)" font-size="16" font-family="FuturaLT, Futura LT"><tspan x="0" y="16">DieSachbearbeiter</tspan><tspan x="0" y="37">Choriner Straße 49 10435 </tspan><tspan x="0" y="58">Berlin</tspan></text>
    <g id="Loc-icon" transform="translate(84 6432)">
      <path id="Path_9" data-name="Path 9" d="M13,6.14a4,4,0,1,0,4,4A4,4,0,0,0,13,6.14Zm0,7a3,3,0,1,1,3-3A3,3,0,0,1,13,13.14Z" transform="translate(-1.559 0.928)"/>
      <path id="Path_10" data-name="Path 10" d="M15.3,1h-.038a.26.26,0,0,0-.038,0A11.444,11.444,0,0,0,3.85,12.425a12.282,12.282,0,0,0,2.394,6.991.243.243,0,0,0,.022.031l8.226,11.171a1.015,1.015,0,0,0,.8.381.935.935,0,0,0,.754-.381l8.226-11.171a.243.243,0,0,0,.022-.031,12.282,12.282,0,0,0,2.394-6.991A11.444,11.444,0,0,0,15.3,1Zm7.442,17.351h0l-7.48,10.158L7.786,18.351h0a10.434,10.434,0,0,1-2.062-5.926,9.542,9.542,0,1,1,19.084,0A10.435,10.435,0,0,1,22.747,18.351Z" transform="translate(-3.85 -0.999)"/>
    </g>
  </g>
</svg>
