<svg xmlns="http://www.w3.org/2000/svg" width="21.98" height="17.863" viewBox="0 0 21.98 17.863">
  <path id="Twitter" d="M25.554,12.44a8.973,8.973,0,0,1-2.59.71,4.518,4.518,0,0,0,1.983-2.5,9.027,9.027,0,0,1-2.864,1.095A4.513,4.513,0,0,0,14.4,15.863a12.8,12.8,0,0,1-9.3-4.712,4.515,4.515,0,0,0,1.4,6.021,4.5,4.5,0,0,1-2.043-.564c0,.019,0,.038,0,.057a4.513,4.513,0,0,0,3.618,4.422,4.534,4.534,0,0,1-1.188.158,4.467,4.467,0,0,1-.849-.081A4.514,4.514,0,0,0,10.25,24.3a9.1,9.1,0,0,1-6.676,1.867,12.825,12.825,0,0,0,19.743-10.8q0-.293-.012-.584A9.134,9.134,0,0,0,25.554,12.44Z" transform="translate(-3.574 -10.326)"/>
</svg>
